<svg xmlns="http://www.w3.org/2000/svg" width="31" height="31" fill="none"><g fill="currentColor" clip-path="url(#a)"><path d="M7.266 12.291H4.873c.404-5.51 5.016-9.87 10.627-9.87 4.44 0 8.458 2.798 9.998 6.96a1.211 1.211 0 0 0 2.271-.84 13.047 13.047 0 0 0-4.715-6.14A12.994 12.994 0 0 0 15.5 0c-3.493 0-6.777 1.36-9.248 3.83a12.99 12.99 0 0 0-3.828 9.112A4.846 4.846 0 0 0 0 17.135v4.117a4.85 4.85 0 0 0 4.844 4.844h2.422a1.21 1.21 0 0 0 1.21-1.211V13.502c0-.669-.542-1.211-1.21-1.211ZM6.055 23.674H4.844a2.425 2.425 0 0 1-2.422-2.422v-4.117a2.425 2.425 0 0 1 2.422-2.422h1.21v8.96Z"/><path d="M26.156 12.291h-2.422c-.668 0-1.21.542-1.21 1.211v12.654c0 .668-.544 1.211-1.212 1.211H17.62v.039a2.42 2.42 0 0 0-4.54 1.172 2.422 2.422 0 0 0 4.54 1.173v.038h3.694a3.637 3.637 0 0 0 3.632-3.633v-.06h1.211A4.85 4.85 0 0 0 31 21.252v-4.117a4.85 4.85 0 0 0-4.844-4.844Zm2.422 8.961a2.425 2.425 0 0 1-2.422 2.422h-1.21v-8.961h1.21a2.425 2.425 0 0 1 2.422 2.422v4.117Z"/></g><defs><clipPath id="a"><path fill="#fff" d="M0 0h31v31H0z"/></clipPath></defs></svg>