<svg xmlns="http://www.w3.org/2000/svg" width="23" height="23" fill="none"><path fill="#fff" d="M22.508 6.65a8.156 8.156 0 0 0-.523-2.768A5.758 5.758 0 0 0 18.696.593a8.25 8.25 0 0 0-2.73-.524C14.765.015 14.384 0 11.334 0S7.894 0 6.7.069a8.25 8.25 0 0 0-2.729.524A5.754 5.754 0 0 0 .683 3.882 8.185 8.185 0 0 0 .16 6.61C.106 7.813.09 8.194.09 11.244s0 3.44.07 4.634c.019.934.195 1.855.523 2.73a5.757 5.757 0 0 0 3.29 3.288 8.222 8.222 0 0 0 2.729.562c1.202.054 1.583.07 4.633.07s3.44 0 4.634-.07a8.228 8.228 0 0 0 2.73-.523 5.763 5.763 0 0 0 3.288-3.289 8.223 8.223 0 0 0 .524-2.731c.053-1.201.07-1.582.07-4.633-.003-3.05-.003-3.438-.073-4.633ZM11.326 17.011a5.773 5.773 0 0 1-5.773-5.774 5.773 5.773 0 0 1 9.856-4.083 5.774 5.774 0 0 1-4.083 9.857ZM17.33 6.597a1.345 1.345 0 1 1-.003-2.69 1.345 1.345 0 0 1 .003 2.69Z"/><path fill="#fff" d="M11.327 14.99a3.75 3.75 0 1 0 0-7.502 3.75 3.75 0 0 0 0 7.501Z"/></svg>