<svg width="161" height="44" viewBox="0 0 161 44" fill="none" xmlns="http://www.w3.org/2000/svg">
<path d="M0.658777 39.9459V43.1173H0V39.9459H0.658777Z" fill="white"/>
<path d="M5.93128 39.9459V43.1173H5.2725L3.84061 40.9313V43.1173H3.18456V39.9459H3.84061L5.2725 42.1318V39.9459H5.93128Z" fill="white"/>
<path d="M10.1966 42.287C10.1966 42.2271 10.1857 42.1736 10.1639 42.1264C10.1439 42.0792 10.1085 42.0366 10.0577 41.9985C10.0087 41.9585 9.94067 41.9213 9.85356 41.8868C9.76826 41.8524 9.66028 41.8197 9.52962 41.7888C9.34088 41.7435 9.17391 41.6927 9.02873 41.6364C8.88536 41.5783 8.76467 41.5112 8.66667 41.435C8.56867 41.3587 8.49427 41.2689 8.44345 41.1655C8.39445 41.062 8.36995 40.9413 8.36995 40.8034C8.36995 40.6709 8.39899 40.5502 8.45706 40.4413C8.51514 40.3306 8.59771 40.2354 8.70478 40.1555C8.81186 40.0738 8.93889 40.0112 9.08589 39.9677C9.23289 39.9241 9.39441 39.9023 9.57045 39.9023C9.82634 39.9023 10.0487 39.9441 10.2374 40.0276C10.4261 40.111 10.5722 40.2263 10.6757 40.3733C10.7809 40.5185 10.8336 40.6872 10.8336 40.8796H10.1775C10.1775 40.7889 10.1539 40.7072 10.1067 40.6346C10.0614 40.562 9.99421 40.504 9.90528 40.4604C9.81636 40.4168 9.70475 40.3951 9.57045 40.3951C9.4416 40.3951 9.33543 40.4141 9.25195 40.4522C9.16847 40.4885 9.10586 40.5366 9.06412 40.5965C9.02419 40.6546 9.00423 40.7181 9.00423 40.7871C9.00423 40.8415 9.01602 40.8905 9.03962 40.9341C9.06502 40.9776 9.10495 41.0175 9.15939 41.0538C9.21384 41.0901 9.28462 41.1246 9.37173 41.1573C9.45884 41.19 9.565 41.2217 9.69023 41.2526C9.87715 41.2961 10.0423 41.3478 10.1857 41.4077C10.329 41.4676 10.4488 41.5384 10.545 41.6201C10.6412 41.6999 10.7129 41.7943 10.7601 41.9032C10.8091 42.0102 10.8336 42.1327 10.8336 42.2707C10.8336 42.4104 10.8045 42.5356 10.7464 42.6463C10.6884 42.7552 10.6049 42.8478 10.496 42.924C10.3889 43.0002 10.2601 43.0592 10.1094 43.101C9.95882 43.1409 9.79095 43.1608 9.60584 43.1608C9.4425 43.1608 9.28008 43.1409 9.11856 43.101C8.95886 43.061 8.81458 42.9993 8.68573 42.9158C8.55688 42.8324 8.45343 42.7262 8.37539 42.5973C8.29917 42.4667 8.26106 42.3133 8.26106 42.1373H8.91984C8.91984 42.2317 8.93617 42.3133 8.96884 42.3823C9.00332 42.4494 9.05141 42.5048 9.11312 42.5483C9.17663 42.5901 9.25195 42.6209 9.33906 42.6409C9.42617 42.6609 9.52236 42.6708 9.62762 42.6708C9.7601 42.6708 9.86808 42.6536 9.95156 42.6191C10.0369 42.5828 10.0986 42.5356 10.1367 42.4776C10.1766 42.4195 10.1966 42.356 10.1966 42.287Z" fill="white"/>
<path d="M14.6687 39.9459V43.1173H14.0127V39.9459H14.6687ZM15.7249 39.9459V40.4686H12.9701V39.9459H15.7249Z" fill="white"/>
<path d="M18.6945 39.9459V43.1173H18.0357V39.9459H18.6945Z" fill="white"/>
<path d="M22.6984 39.9459V43.1173H22.0423V39.9459H22.6984ZM23.7546 39.9459V40.4686H20.9997V39.9459H23.7546Z" fill="white"/>
<path d="M27.9165 39.9459H28.5752V42.0366C28.5752 42.2797 28.519 42.4857 28.4065 42.6545C28.2939 42.8215 28.1406 42.9476 27.9464 43.0329C27.7522 43.1182 27.5308 43.1608 27.2822 43.1608C27.0299 43.1608 26.8058 43.1182 26.6098 43.0329C26.4156 42.9476 26.2632 42.8215 26.1525 42.6545C26.0418 42.4857 25.9864 42.2797 25.9864 42.0366V39.9459H26.6397V42.0366C26.6397 42.1763 26.6651 42.2915 26.716 42.3823C26.7686 42.4712 26.843 42.5365 26.9392 42.5783C27.0354 42.62 27.1497 42.6409 27.2822 42.6409C27.4147 42.6409 27.5281 42.62 27.6225 42.5783C27.7168 42.5365 27.7894 42.4712 27.8402 42.3823C27.8911 42.2915 27.9165 42.1763 27.9165 42.0366V39.9459Z" fill="white"/>
<path d="M32.4975 39.9459V43.1173H31.8415V39.9459H32.4975ZM33.5537 39.9459V40.4686H30.7989V39.9459H33.5537Z" fill="white"/>
<path d="M38.0858 42.5973V43.1173H36.2701V42.5973H38.0858ZM36.477 39.9459V43.1173H35.8209V39.9459H36.477ZM37.8517 41.2172V41.7371H36.2701V41.2172H37.8517ZM38.0804 39.9459V40.4686H36.2701V39.9459H38.0804Z" fill="white"/>
<path d="M46.355 41.4567V41.6092C46.355 41.8505 46.3205 42.0665 46.2516 42.2571C46.1826 42.4476 46.0846 42.611 45.9576 42.7471C45.8324 42.8814 45.6817 42.9839 45.5057 43.0547C45.3297 43.1255 45.1355 43.1608 44.9231 43.1608C44.7108 43.1608 44.5166 43.1255 44.3406 43.0547C44.1645 42.9839 44.0121 42.8814 43.8833 42.7471C43.7544 42.611 43.6546 42.4476 43.5838 42.2571C43.5148 42.0665 43.4804 41.8505 43.4804 41.6092V41.4567C43.4804 41.2154 43.5148 40.9994 43.5838 40.8088C43.6546 40.6183 43.7535 40.455 43.8805 40.3188C44.0076 40.1827 44.1591 40.0793 44.3351 40.0085C44.5112 39.9377 44.7054 39.9023 44.9177 39.9023C45.1318 39.9023 45.326 39.9377 45.5002 40.0085C45.6763 40.0793 45.8278 40.1827 45.9549 40.3188C46.0837 40.455 46.1826 40.6183 46.2516 40.8088C46.3205 40.9994 46.355 41.2154 46.355 41.4567ZM45.699 41.6092V41.4513C45.699 41.2861 45.6817 41.14 45.6473 41.013C45.6128 40.886 45.561 40.7789 45.4921 40.6918C45.4249 40.6047 45.3433 40.5384 45.2471 40.4931C45.1509 40.4477 45.0411 40.425 44.9177 40.425C44.7961 40.425 44.6863 40.4477 44.5883 40.4931C44.4921 40.5384 44.4105 40.6047 44.3433 40.6918C44.278 40.7789 44.2272 40.886 44.1909 41.013C44.1564 41.14 44.1391 41.2861 44.1391 41.4513V41.6092C44.1391 41.7725 44.1564 41.9186 44.1909 42.0475C44.2272 42.1745 44.2789 42.2825 44.346 42.3714C44.415 42.4585 44.4976 42.5257 44.5938 42.5728C44.6918 42.6182 44.8015 42.6409 44.9231 42.6409C45.0465 42.6409 45.1554 42.6182 45.2498 42.5728C45.346 42.5257 45.4277 42.4585 45.4948 42.3714C45.562 42.2825 45.6128 42.1745 45.6473 42.0475C45.6817 41.9186 45.699 41.7725 45.699 41.6092Z" fill="white"/>
<path d="M49.3899 39.9459V43.1173H48.7338V39.9459H49.3899ZM50.7646 41.2934V41.8161H49.2129V41.2934H50.7646ZM50.9415 39.9459V40.4686H49.2129V39.9459H50.9415Z" fill="white"/>
<path d="M58.6037 42.5973V43.1173H56.886V42.5973H58.6037ZM57.0929 39.9459V43.1173H56.4368V39.9459H57.0929Z" fill="white"/>
<path d="M62.1857 40.5965L61.2329 43.1173H60.5687L61.8454 39.9459H62.2864L62.1857 40.5965ZM63.065 43.1173L62.1068 40.5911L62.006 39.9459H62.4552L63.7292 43.1173H63.065ZM63.0242 41.9413V42.434H61.2112V41.9413H63.0242Z" fill="white"/>
<path d="M67.2268 41.7317H66.3503L66.3448 41.2798H67.1261C67.2441 41.2798 67.3439 41.2644 67.4255 41.2335C67.5072 41.2027 67.5689 41.1582 67.6106 41.1001C67.6542 41.0402 67.676 40.9676 67.676 40.8823C67.676 40.7862 67.6551 40.7072 67.6134 40.6455C67.5716 40.5838 67.509 40.5393 67.4255 40.5121C67.3421 40.4831 67.2386 40.4686 67.1152 40.4686H66.5708V43.1173H65.9147V39.9459H67.0798C67.2758 39.9459 67.45 39.964 67.6025 40.0003C67.7567 40.0348 67.8883 40.0875 67.9972 40.1582C68.1061 40.229 68.1887 40.3198 68.2449 40.4305C68.303 40.5393 68.332 40.6682 68.332 40.817C68.332 40.9459 68.2994 41.0656 68.234 41.1763C68.1705 41.287 68.0725 41.3769 67.94 41.4458C67.8076 41.5148 67.6361 41.5529 67.4255 41.5602L67.2268 41.7317ZM67.1969 43.1173H66.1652L66.4319 42.5973H67.1969C67.3239 42.5973 67.4283 42.5792 67.5099 42.5429C67.5934 42.5066 67.6551 42.4576 67.695 42.3959C67.735 42.3324 67.7549 42.2598 67.7549 42.1781C67.7549 42.0874 67.7368 42.0093 67.7005 41.944C67.666 41.8769 67.6097 41.8251 67.5317 41.7888C67.4537 41.7507 67.352 41.7317 67.2268 41.7317H66.5572L66.5599 41.2798H67.4092L67.5589 41.4567C67.7604 41.4531 67.9237 41.4885 68.0489 41.5629C68.1741 41.6355 68.2658 41.7299 68.3239 41.846C68.3838 41.9622 68.4137 42.0828 68.4137 42.2081C68.4137 42.3623 68.3865 42.4966 68.332 42.611C68.2776 42.7235 68.1986 42.8178 68.0952 42.8941C67.9918 42.9685 67.8647 43.0247 67.7141 43.0628C67.5635 43.0991 67.3911 43.1173 67.1969 43.1173Z" fill="white"/>
<path d="M73.5692 41.4567V41.6092C73.5692 41.8505 73.5347 42.0665 73.4657 42.2571C73.3968 42.4476 73.2988 42.611 73.1717 42.7471C73.0465 42.8814 72.8959 42.9839 72.7198 43.0547C72.5438 43.1255 72.3496 43.1608 72.1373 43.1608C71.9249 43.1608 71.7308 43.1255 71.5547 43.0547C71.3787 42.9839 71.2262 42.8814 71.0974 42.7471C70.9685 42.611 70.8687 42.4476 70.7979 42.2571C70.729 42.0665 70.6945 41.8505 70.6945 41.6092V41.4567C70.6945 41.2154 70.729 40.9994 70.7979 40.8088C70.8687 40.6183 70.9676 40.455 71.0947 40.3188C71.2217 40.1827 71.3732 40.0793 71.5493 40.0085C71.7253 39.9377 71.9195 39.9023 72.1318 39.9023C72.346 39.9023 72.5402 39.9377 72.7144 40.0085C72.8904 40.0793 73.042 40.1827 73.169 40.3188C73.2978 40.455 73.3968 40.6183 73.4657 40.8088C73.5347 40.9994 73.5692 41.2154 73.5692 41.4567ZM72.9131 41.6092V41.4513C72.9131 41.2861 72.8959 41.14 72.8614 41.013C72.8269 40.886 72.7752 40.7789 72.7062 40.6918C72.6391 40.6047 72.5574 40.5384 72.4612 40.4931C72.365 40.4477 72.2552 40.425 72.1318 40.425C72.0102 40.425 71.9004 40.4477 71.8024 40.4931C71.7062 40.5384 71.6246 40.6047 71.5574 40.6918C71.4921 40.7789 71.4413 40.886 71.405 41.013C71.3705 41.14 71.3533 41.2861 71.3533 41.4513V41.6092C71.3533 41.7725 71.3705 41.9186 71.405 42.0475C71.4413 42.1745 71.493 42.2825 71.5602 42.3714C71.6291 42.4585 71.7117 42.5257 71.8079 42.5728C71.9059 42.6182 72.0157 42.6409 72.1373 42.6409C72.2607 42.6409 72.3696 42.6182 72.4639 42.5728C72.5601 42.5257 72.6418 42.4585 72.7089 42.3714C72.7761 42.2825 72.8269 42.1745 72.8614 42.0475C72.8959 41.9186 72.9131 41.7725 72.9131 41.6092Z" fill="white"/>
<path d="M75.9452 39.9459H77.1947C77.3889 39.9459 77.5631 39.9668 77.7174 40.0085C77.8716 40.0503 78.0023 40.112 78.1094 40.1936C78.2183 40.2735 78.3008 40.3733 78.3571 40.4931C78.4152 40.611 78.4442 40.748 78.4442 40.9041C78.4442 41.0765 78.4134 41.2244 78.3517 41.3478C78.2899 41.4694 78.2028 41.5702 78.0903 41.65C77.9778 41.7299 77.8453 41.7943 77.6929 41.8433L77.4833 41.9576H76.3808L76.3753 41.435H77.2029C77.3335 41.435 77.4415 41.415 77.5268 41.3751C77.6121 41.3351 77.6765 41.2798 77.7201 41.209C77.7637 41.1364 77.7854 41.0529 77.7854 40.9586C77.7854 40.8587 77.7637 40.7725 77.7201 40.7C77.6784 40.6255 77.613 40.5684 77.5241 40.5285C77.437 40.4885 77.3272 40.4686 77.1947 40.4686H76.604V43.1173H75.9452V39.9459ZM77.8671 43.1173L77.0831 41.7126L77.7773 41.7072L78.5749 43.0873V43.1173H77.8671Z" fill="white"/>
<path d="M84.3669 39.9459H84.9331L85.8505 42.2571L86.7652 39.9459H87.3314L86.0737 43.1173H85.6246L84.3669 39.9459ZM84.0756 39.9459H84.631L84.7317 42.2462V43.1173H84.0756V39.9459ZM87.0701 39.9459H87.6281V43.1173H86.9721V42.2462L87.0701 39.9459Z" fill="white"/>
<path d="M91.4306 40.5965L90.4778 43.1173H89.8136L91.0903 39.9459H91.5313L91.4306 40.5965ZM92.3099 43.1173L91.3517 40.5911L91.2509 39.9459H91.7001L92.9741 43.1173H92.3099ZM92.2691 41.9413V42.434H90.4561V41.9413H92.2691Z" fill="white"/>
<path d="M95.1569 39.9459H96.4064C96.6006 39.9459 96.7748 39.9668 96.9291 40.0085C97.0833 40.0503 97.214 40.112 97.3211 40.1936C97.4299 40.2735 97.5125 40.3733 97.5688 40.4931C97.6269 40.611 97.6559 40.748 97.6559 40.9041C97.6559 41.0765 97.625 41.2244 97.5633 41.3478C97.5016 41.4694 97.4145 41.5702 97.302 41.65C97.1895 41.7299 97.057 41.7943 96.9046 41.8433L96.695 41.9576H95.5925L95.587 41.435H96.4146C96.5452 41.435 96.6532 41.415 96.7385 41.3751C96.8238 41.3351 96.8882 41.2798 96.9318 41.209C96.9753 41.1364 96.9971 41.0529 96.9971 40.9586C96.9971 40.8587 96.9753 40.7725 96.9318 40.7C96.89 40.6255 96.8247 40.5684 96.7358 40.5285C96.6487 40.4885 96.5389 40.4686 96.4064 40.4686H95.8157V43.1173H95.1569V39.9459ZM97.0788 43.1173L96.2948 41.7126L96.9889 41.7072L97.7866 43.0873V43.1173H97.0788Z" fill="white"/>
<path d="M100.715 39.9459V43.1173H100.059V39.9459H100.715ZM102.749 39.9459L101.398 41.5193L100.636 42.2625L100.484 41.6473L101.023 40.9885L101.932 39.9459H102.749ZM102.022 43.1173L100.974 41.6555L101.453 41.2498L102.806 43.1173H102.022Z" fill="white"/>
<path d="M107.207 42.5973V43.1173H105.392V42.5973H107.207ZM105.598 39.9459V43.1173H104.942V39.9459H105.598ZM106.973 41.2172V41.7371H105.392V41.2172H106.973ZM107.202 39.9459V40.4686H105.392V39.9459H107.202Z" fill="white"/>
<path d="M110.961 39.9459V43.1173H110.305V39.9459H110.961ZM112.017 39.9459V40.4686H109.262V39.9459H112.017Z" fill="white"/>
<path d="M117.51 39.9459H118.759C118.953 39.9459 119.127 39.9668 119.282 40.0085C119.436 40.0503 119.567 40.112 119.674 40.1936C119.783 40.2735 119.865 40.3733 119.921 40.4931C119.98 40.611 120.009 40.748 120.009 40.9041C120.009 41.0765 119.978 41.2244 119.916 41.3478C119.854 41.4694 119.767 41.5702 119.655 41.65C119.542 41.7299 119.41 41.7943 119.257 41.8433L119.048 41.9576H117.945L117.94 41.435H118.767C118.898 41.435 119.006 41.415 119.091 41.3751C119.176 41.3351 119.241 41.2798 119.284 41.209C119.328 41.1364 119.35 41.0529 119.35 40.9586C119.35 40.8587 119.328 40.7725 119.284 40.7C119.243 40.6255 119.177 40.5684 119.088 40.5285C119.001 40.4885 118.892 40.4686 118.759 40.4686H118.168V43.1173H117.51V39.9459ZM119.431 43.1173L118.647 41.7126L119.342 41.7072L120.139 43.0873V43.1173H119.431Z" fill="white"/>
<path d="M124.677 42.5973V43.1173H122.861V42.5973H124.677ZM123.068 39.9459V43.1173H122.412V39.9459H123.068ZM124.443 41.2172V41.7371H122.861V41.2172H124.443ZM124.671 39.9459V40.4686H122.861V39.9459H124.671Z" fill="white"/>
<path d="M128.27 40.5965L127.317 43.1173H126.653L127.929 39.9459H128.37L128.27 40.5965ZM129.149 43.1173L128.191 40.5911L128.09 39.9459H128.539L129.813 43.1173H129.149ZM129.108 41.9413V42.434H127.295V41.9413H129.108Z" fill="white"/>
<path d="M133.784 42.287C133.784 42.2271 133.774 42.1736 133.752 42.1264C133.732 42.0792 133.696 42.0366 133.646 41.9985C133.597 41.9585 133.529 41.9213 133.441 41.8868C133.356 41.8524 133.248 41.8197 133.117 41.7888C132.929 41.7435 132.762 41.6927 132.617 41.6364C132.473 41.5783 132.353 41.5112 132.255 41.435C132.157 41.3587 132.082 41.2689 132.031 41.1655C131.982 41.062 131.958 40.9413 131.958 40.8034C131.958 40.6709 131.987 40.5502 132.045 40.4413C132.103 40.3306 132.186 40.2354 132.293 40.1555C132.4 40.0738 132.527 40.0112 132.674 39.9677C132.821 39.9241 132.982 39.9023 133.158 39.9023C133.414 39.9023 133.637 39.9441 133.825 40.0276C134.014 40.111 134.16 40.2263 134.264 40.3733C134.369 40.5185 134.421 40.6872 134.421 40.8796H133.765C133.765 40.7889 133.742 40.7072 133.695 40.6346C133.649 40.562 133.582 40.504 133.493 40.4604C133.404 40.4168 133.293 40.3951 133.158 40.3951C133.029 40.3951 132.923 40.4141 132.84 40.4522C132.756 40.4885 132.694 40.5366 132.652 40.5965C132.612 40.6546 132.592 40.7181 132.592 40.7871C132.592 40.8415 132.604 40.8905 132.627 40.9341C132.653 40.9776 132.693 41.0175 132.747 41.0538C132.802 41.0901 132.872 41.1246 132.96 41.1573C133.047 41.19 133.153 41.2217 133.278 41.2526C133.465 41.2961 133.63 41.3478 133.774 41.4077C133.917 41.4676 134.037 41.5384 134.133 41.6201C134.229 41.6999 134.301 41.7943 134.348 41.9032C134.397 42.0102 134.421 42.1327 134.421 42.2707C134.421 42.4104 134.392 42.5356 134.334 42.6463C134.276 42.7552 134.193 42.8478 134.084 42.924C133.977 43.0002 133.848 43.0592 133.697 43.101C133.547 43.1409 133.379 43.1608 133.194 43.1608C133.03 43.1608 132.868 43.1409 132.706 43.101C132.547 43.061 132.402 42.9993 132.274 42.9158C132.145 42.8324 132.041 42.7262 131.963 42.5973C131.887 42.4667 131.849 42.3133 131.849 42.1373H132.508C132.508 42.2317 132.524 42.3133 132.557 42.3823C132.591 42.4494 132.639 42.5048 132.701 42.5483C132.764 42.5901 132.84 42.6209 132.927 42.6409C133.014 42.6609 133.11 42.6708 133.215 42.6708C133.348 42.6708 133.456 42.6536 133.539 42.6191C133.625 42.5828 133.686 42.5356 133.725 42.4776C133.764 42.4195 133.784 42.356 133.784 42.287Z" fill="white"/>
<path d="M139.043 42.5973V43.1173H137.228V42.5973H139.043ZM137.434 39.9459V43.1173H136.778V39.9459H137.434ZM138.809 41.2172V41.7371H137.228V41.2172H138.809ZM139.038 39.9459V40.4686H137.228V39.9459H139.038Z" fill="white"/>
<path d="M142.636 40.5965L141.683 43.1173H141.019L142.296 39.9459H142.737L142.636 40.5965ZM143.515 43.1173L142.557 40.5911L142.457 39.9459H142.906L144.18 43.1173H143.515ZM143.475 41.9413V42.434H141.662V41.9413H143.475Z" fill="white"/>
<path d="M146.362 39.9459H147.612C147.806 39.9459 147.98 39.9668 148.135 40.0085C148.289 40.0503 148.42 40.112 148.527 40.1936C148.636 40.2735 148.718 40.3733 148.774 40.4931C148.832 40.611 148.861 40.748 148.861 40.9041C148.861 41.0765 148.831 41.2244 148.769 41.3478C148.707 41.4694 148.62 41.5702 148.508 41.65C148.395 41.7299 148.263 41.7943 148.11 41.8433L147.901 41.9576H146.798L146.793 41.435H147.62C147.751 41.435 147.859 41.415 147.944 41.3751C148.029 41.3351 148.094 41.2798 148.137 41.209C148.181 41.1364 148.203 41.0529 148.203 40.9586C148.203 40.8587 148.181 40.7725 148.137 40.7C148.096 40.6255 148.03 40.5684 147.941 40.5285C147.854 40.4885 147.744 40.4686 147.612 40.4686H147.021V43.1173H146.362V39.9459ZM148.284 43.1173L147.5 41.7126L148.195 41.7072L148.992 43.0873V43.1173H148.284Z" fill="white"/>
<path d="M153.252 42.0611H153.911C153.894 42.277 153.831 42.4676 153.72 42.6327C153.611 42.7979 153.459 42.9276 153.263 43.022C153.067 43.1146 152.83 43.1608 152.552 43.1608C152.336 43.1608 152.142 43.1255 151.97 43.0547C151.799 42.9839 151.653 42.8832 151.532 42.7525C151.412 42.62 151.319 42.4603 151.254 42.2734C151.19 42.0847 151.159 41.8732 151.159 41.6391V41.4268C151.159 41.1927 151.191 40.9822 151.257 40.7952C151.322 40.6065 151.416 40.4459 151.54 40.3134C151.663 40.1791 151.81 40.0775 151.981 40.0085C152.153 39.9377 152.346 39.9023 152.561 39.9023C152.842 39.9023 153.079 39.9504 153.271 40.0466C153.463 40.141 153.613 40.2726 153.72 40.4413C153.827 40.6101 153.892 40.8034 153.913 41.0212H153.257C153.247 40.9032 153.217 40.7998 153.168 40.7108C153.119 40.6201 153.045 40.5493 152.947 40.4985C152.849 40.4477 152.72 40.4223 152.561 40.4223C152.437 40.4223 152.329 40.4441 152.237 40.4876C152.144 40.5294 152.066 40.5929 152.002 40.6782C151.941 40.7635 151.894 40.8687 151.861 40.994C151.83 41.1174 151.815 41.2607 151.815 41.4241V41.6391C151.815 41.7988 151.828 41.9413 151.855 42.0665C151.885 42.1899 151.929 42.2943 151.989 42.3796C152.049 42.4649 152.125 42.5302 152.218 42.5756C152.312 42.6191 152.424 42.6409 152.552 42.6409C152.707 42.6409 152.833 42.62 152.931 42.5783C153.029 42.5347 153.104 42.4694 153.157 42.3823C153.209 42.2952 153.241 42.1881 153.252 42.0611Z" fill="white"/>
<path d="M158.508 41.2961V41.8188H156.711V41.2961H158.508ZM156.897 39.9459V43.1173H156.241V39.9459H156.897ZM158.987 39.9459V43.1173H158.331V39.9459H158.987Z" fill="white"/>
<path d="M43.6128 31.086H28.8672V29.1512C31.3695 29.0024 32.6206 28.4071 32.6206 27.3653V6.5293C32.6206 5.4875 31.3695 4.89219 28.8672 4.74336V2.80859H43.6128V4.70615C42.4808 4.75576 41.5275 4.9542 40.753 5.30147C39.9785 5.64873 39.5912 6.05801 39.5912 6.5293V27.3653C39.5912 27.8365 39.9785 28.2458 40.753 28.5931C41.5275 28.9404 42.4808 29.1388 43.6128 29.1884V31.086Z" fill="white"/>
<path d="M76.082 31.086H52.221V29.1512C54.7233 29.0024 55.9744 28.4071 55.9744 27.3653V6.5293C55.9744 5.4875 54.7233 4.89219 52.221 4.74336V2.80859H66.9666V4.70615C65.8346 4.75576 64.8814 4.9542 64.1068 5.30147C63.3323 5.64873 62.9451 6.05801 62.9451 6.5293V27.3653C62.9451 27.8365 63.3323 28.283 64.1068 28.7047C64.8814 29.1264 65.8048 29.3124 66.8772 29.2628C70.8094 29.0892 72.7456 26.3111 72.6861 20.9284H76.082V31.086Z" fill="white"/>
<path d="M118.991 31.086H104.246V29.1512C106.688 29.0024 107.91 28.4071 107.91 27.3653V11.1802L100.939 31.086H96.7389L90.0364 11.2174V27.3653C90.0364 27.8365 90.4236 28.2458 91.1981 28.5931C91.9726 28.9404 92.9259 29.1388 94.0579 29.1884V31.086H81.9933V29.1512C84.4956 29.0024 85.7467 28.4071 85.7467 27.3653V6.5293C85.7467 5.4875 84.4956 4.89219 81.9933 4.74336V2.80859H94.326L99.9561 19.8122L105.586 2.80859H118.187V4.70615C116.042 4.80537 114.97 5.41309 114.97 6.5293V27.3653C114.97 27.8365 115.357 28.2458 116.132 28.5931C116.906 28.9404 117.859 29.1388 118.991 29.1884V31.086Z" fill="white"/>
<path fill-rule="evenodd" clip-rule="evenodd" d="M137.407 18.1007H139.909L146.254 16.9101C152.331 16.1163 155.34 13.9087 155.28 10.2872C155.161 5.30147 150.544 2.80859 141.428 2.80859H126.683V4.74336C129.185 4.89219 130.436 5.4875 130.436 6.5293V27.3653C130.436 28.4071 129.185 29.0024 126.683 29.1512V31.086H141.428V29.1884C140.296 29.1388 139.343 28.9404 138.568 28.5931C137.794 28.2458 137.407 27.8365 137.407 27.3653V18.1007ZM141.875 4.70615C145.986 4.73096 148.012 6.59131 147.952 10.2872C147.892 12.6685 146.79 14.2808 144.645 15.1241C143.156 15.6946 140.743 15.9675 137.407 15.9427V6.5293C137.407 6.03321 137.854 5.59912 138.747 5.22705C139.641 4.85498 140.683 4.68135 141.875 4.70615Z" fill="white"/>
<path d="M161 28.8535V25.4305H157.425V28.2954C157.246 28.7915 156.829 29.052 156.174 29.0768C155.34 29.1016 154.923 28.8287 154.923 28.2582V21.561C154.923 18.6092 152.033 17.0589 146.254 16.9101L139.909 18.1007C142.233 18.1007 144.02 18.4356 145.271 19.1053C146.582 19.775 147.237 20.5936 147.237 21.561V28.8163C147.237 29.5605 147.892 30.131 149.203 30.5279C150.335 30.8999 151.795 31.086 153.582 31.086C155.369 31.086 157.038 30.8875 158.587 30.4906C160.195 30.069 161 29.5233 161 28.8535Z" fill="white"/>
<mask id="mask0_497_7477" style="mask-type:alpha" maskUnits="userSpaceOnUse" x="0" y="0" width="49" height="44">
<path d="M0.241268 19.8828C0.149048 20.6284 0.102932 21.2911 0.102932 21.8711C0.102932 22.451 0.149048 23.1137 0.241268 23.8593H4.66799C4.80633 24.8535 5.01383 25.8476 5.2905 26.8418L1.20962 28.3951C1.62462 29.5963 2.17796 30.8183 2.86964 32.061L7.01969 30.5076C7.52692 31.3775 8.14943 32.2267 8.88721 33.0551L5.77467 35.8511C6.69691 36.8867 7.73442 37.8187 8.88721 38.6472L11.9998 35.8511C12.922 36.5139 13.8673 37.0731 14.8356 37.5287L13.1064 41.1946C14.4898 41.8574 15.8501 42.3752 17.1873 42.748L18.9165 39.0821C20.0232 39.3306 21.1299 39.517 22.2365 39.6413V43.6178C23.0666 43.7007 23.8043 43.7421 24.4499 43.7421C25.0955 43.7421 25.8333 43.7007 26.6633 43.6178V39.6413C27.7699 39.517 28.8766 39.3306 29.9833 39.0821L31.6433 42.748C33.0267 42.3752 34.41 41.8574 35.7934 41.1946L34.0642 37.5287C35.0325 37.0731 35.9548 36.5139 36.8309 35.8511L40.0126 38.6472C41.1654 37.8187 42.2029 36.8867 43.1251 35.8511L40.0126 33.0551C40.7043 32.2267 41.3268 31.3775 41.8801 30.5076L45.961 32.061C46.6988 30.8183 47.2752 29.5963 47.6902 28.3951L43.5401 26.8418C43.8629 25.8476 44.0935 24.8535 44.2318 23.8593H48.6585C48.7508 23.1137 48.7969 22.451 48.7969 21.8711C48.7969 21.2911 48.7508 20.6284 48.6585 19.8828H44.2318C44.0935 18.8886 43.8629 17.8945 43.5401 16.9004L47.6902 15.347C47.2752 14.1458 46.6988 12.9238 45.961 11.6811L41.8801 13.2345C41.3268 12.3646 40.7043 11.5154 40.0126 10.687L43.1251 7.89098C42.2029 6.85542 41.1654 5.92341 40.0126 5.09496L36.8309 7.89098C35.9548 7.22822 35.0325 6.66902 34.0642 6.21337L35.7934 2.48535C34.41 1.86401 33.0267 1.36694 31.6433 0.994139L29.9833 4.66003C28.8766 4.37007 27.7699 4.18367 26.6633 4.10082V0.124267C25.8333 0.0414225 25.0955 0 24.4499 0C23.8043 0 23.0666 0.0414225 22.2365 0.124267V4.10082C21.1299 4.18367 20.0232 4.37007 18.9165 4.66003L17.1873 0.994139C15.8501 1.36694 14.4898 1.86401 13.1064 2.48535L14.8356 6.21337C13.8673 6.71044 12.922 7.26964 11.9998 7.89098L8.88721 5.09496C7.73442 5.92341 6.69691 6.85542 5.77467 7.89098L8.88721 10.687C8.14943 11.5154 7.52692 12.3646 7.01969 13.2345L2.86964 11.6811C2.17796 12.9238 1.62462 14.1458 1.20962 15.347L5.2905 16.9004C5.01383 17.8945 4.80633 18.8886 4.66799 19.8828H0.241268ZM24.4499 11.9297C27.4933 11.9297 30.0986 12.9031 32.2658 14.85C34.4331 16.7968 35.5167 19.1372 35.5167 21.8711C35.5167 24.6049 34.4331 26.9453 32.2658 28.8922C30.0986 30.839 27.4933 31.8124 24.4499 31.8124C21.4065 31.8124 18.8012 30.839 16.634 28.8922C14.4667 26.9453 13.3831 24.6049 13.3831 21.8711C13.3831 19.1372 14.4667 16.7968 16.634 14.85C18.8012 12.9031 21.4065 11.9297 24.4499 11.9297Z" fill="#00DE4C"/>
</mask>
<g mask="url(#mask0_497_7477)">
<rect x="-3.01172" y="1.11719" width="29.6905" height="29.8683" fill="#24C69F"/>
</g>
</svg>
