<svg xmlns="http://www.w3.org/2000/svg" width="26" height="21" fill="none"><path fill="#fff" d="M25.385 2.436c-.94.407-1.932.677-2.948.8A5.158 5.158 0 0 0 24.697.4c-1.006.6-2.109 1.022-3.259 1.25a5.12 5.12 0 0 0-8.742 4.67A14.538 14.538 0 0 1 2.142.962a5.196 5.196 0 0 0-.687 2.586 5.108 5.108 0 0 0 2.273 4.259 5.058 5.058 0 0 1-2.323-.637v.062a5.12 5.12 0 0 0 4.122 4.996 4.907 4.907 0 0 1-1.374.212 6.115 6.115 0 0 1-.962-.087 5.133 5.133 0 0 0 4.784 3.546 10.266 10.266 0 0 1-7.569 2.124 14.45 14.45 0 0 0 7.856 2.31A14.473 14.473 0 0 0 22.887 5.746v-.662c.98-.731 1.825-1.627 2.498-2.648Z"/></svg>