<svg xmlns="http://www.w3.org/2000/svg" width="37" height="37" fill="none"><g fill="#CB8D16" clip-path="url(#a)"><path d="M8.992 5.441H28.17V6.64H8.992V5.441ZM8.992 7.84H28.17v1.198H8.992V7.84ZM8.992 10.234H28.17v1.199H8.992v-1.199ZM8.992 12.633h16.78v1.198H8.992v-1.198ZM8.992 15.031h15.582v1.199H8.992V15.03ZM8.992 17.428h14.383v1.198H8.992v-1.198Z"/><path d="M31.165 27.615a.6.6 0 0 0-.599.6v5.393a1.798 1.798 0 0 1-3.595 0v-2.397a.6.6 0 0 0-.6-.6H6.595V3.643A1.857 1.857 0 0 1 8.5 1.845h22.68a2.967 2.967 0 0 0-.614 1.798v5.394a.6.6 0 1 0 1.199 0V6.64h4.195a.6.6 0 0 0 .6-.6V3.644A3 3 0 0 0 33.562.647H8.5a3.056 3.056 0 0 0-3.104 2.996v26.968H1.201c-.331 0-.6.268-.6.6v2.397a3 3 0 0 0 2.997 2.997h25.17a3 3 0 0 0 2.997-2.997v-5.394c0-.33-.268-.599-.6-.599Zm4.196-23.972v1.798h-3.596V3.643a1.798 1.798 0 0 1 3.596 0ZM1.8 33.608V31.81h23.97v1.798c.003.65.22 1.282.616 1.798H3.597a1.798 1.798 0 0 1-1.797-1.798Z"/><path d="M35.96 20.424H11.988a.6.6 0 0 0-.6.6v4.794c0 .33.27.599.6.599H35.96a.6.6 0 0 0 .6-.6v-4.794a.6.6 0 0 0-.6-.6Zm-.6 4.794H12.588v-3.596h1.199v.6h1.199v-.6h1.198v.6h1.199v-.6h1.198v.6h1.199v-.6h1.198v.6h1.199v-.6h1.199v.6h1.198v-.6h1.199v.6h1.198v-.6h1.199v.6h1.198v-.6h1.199v.6h1.199v-.6h1.198v.6h1.199v-.6h1.199v3.596ZM25.058 19.939a.591.591 0 0 0 .236-.05l2.954-1.264.01-.005a.58.58 0 0 0 .168-.113c.006-.006.014-.007.02-.013l6.782-6.782.847-.848a1.798 1.798 0 0 0 0-2.542 1.841 1.841 0 0 0-2.542 0l-.848.847-6.78 6.78c-.006.006-.007.014-.013.02a.58.58 0 0 0-.114.168l-.006.009-1.265 2.958a.6.6 0 0 0 .551.835Zm1.139-1.738.332-.78.444.444-.776.336Zm8.184-9.032a.612.612 0 0 1 .847 0 .6.6 0 0 1 0 .848l-.424.424-.848-.848.425-.424ZM33.11 10.44l.848.848-5.933 5.933-.848-.848 5.933-5.933Z"/></g><defs><clipPath id="a"><path fill="#fff" d="M.602.6h36v36h-36z"/></clipPath></defs></svg>