<svg xmlns="http://www.w3.org/2000/svg" width="37" height="37" fill="none"><path fill="#E5E5E5" d="M0 0h37v37H0z"/><g clip-path="url(#a)"><path fill="#fff" d="M-1145-5483H455v8139h-1600z"/><g filter="url(#b)" shape-rendering="crispEdges"><path fill="#fff" d="M-112-185h451v652h-451z"/><path stroke="#000" stroke-opacity=".07" d="M-112-185h451v652h-451z"/></g><circle cx="19" cy="19" r="40" fill="#FDDCDC"/><g fill="#E04848" clip-path="url(#c)"><path d="M8.988 5.441h19.178V6.64H8.988V5.441ZM8.988 7.84h19.178v1.198H8.988V7.84ZM8.988 10.234h19.178v1.199H8.988v-1.199ZM8.988 12.633h16.78v1.198H8.988v-1.198ZM8.988 15.031H24.57v1.199H8.988V15.03ZM8.988 17.428h14.383v1.198H8.988v-1.198Z"/><path d="M31.163 27.615a.6.6 0 0 0-.599.6v5.393a1.798 1.798 0 0 1-3.596 0v-2.397a.6.6 0 0 0-.599-.6H6.593V3.643a1.857 1.857 0 0 1 1.905-1.798H31.18a2.967 2.967 0 0 0-.615 1.798v5.394a.6.6 0 0 0 1.199 0V6.64h4.195a.6.6 0 0 0 .6-.6V3.644A3 3 0 0 0 33.56.647H8.498a3.056 3.056 0 0 0-3.104 2.996v26.968H1.2c-.331 0-.6.268-.6.6v2.397a3 3 0 0 0 2.997 2.997h25.17a3 3 0 0 0 2.997-2.997v-5.394a.6.6 0 0 0-.6-.599ZM35.36 3.643v1.798h-3.596V3.643a1.798 1.798 0 1 1 3.596 0ZM1.799 33.608V31.81H25.77v1.798c.002.65.218 1.282.615 1.798H3.596a1.798 1.798 0 0 1-1.798-1.798Z"/><path d="M35.958 20.424H11.986a.6.6 0 0 0-.6.6v4.794c0 .33.27.599.6.599h23.972a.6.6 0 0 0 .6-.6v-4.794a.6.6 0 0 0-.6-.6Zm-.6 4.794H12.585v-3.596h1.199v.6h1.199v-.6h1.198v.6h1.199v-.6h1.198v.6h1.199v-.6h1.198v.6h1.199v-.6h1.198v.6h1.2v-.6h1.198v.6h1.198v-.6h1.199v.6h1.198v-.6h1.2v.6h1.198v-.6h1.198v.6h1.199v-.6h1.199v3.596ZM25.056 19.939a.59.59 0 0 0 .236-.05l2.955-1.264.009-.005a.579.579 0 0 0 .168-.113c.006-.006.014-.007.02-.013l6.782-6.782.847-.848a1.798 1.798 0 0 0 0-2.542 1.841 1.841 0 0 0-2.542 0l-.848.847-6.78 6.78c-.006.006-.007.014-.013.02a.58.58 0 0 0-.114.168l-.006.009-1.265 2.958a.6.6 0 0 0 .551.835Zm1.139-1.738.332-.78.444.444-.776.336Zm8.184-9.032a.612.612 0 0 1 .847 0 .6.6 0 0 1 0 .848l-.424.424-.848-.848.425-.424Zm-1.272 1.271.848.848-5.933 5.933-.848-.848 5.933-5.933Z"/></g></g><defs><clipPath id="a"><path fill="#fff" d="M-1145-5483H455v8139h-1600z"/></clipPath><clipPath id="c"><path fill="#fff" d="M.6.6h36v36H.6z"/></clipPath><filter id="b" width="712" height="913" x="-202.5" y="-275.5" color-interpolation-filters="sRGB" filterUnits="userSpaceOnUse"><feFlood flood-opacity="0" result="BackgroundImageFix"/><feColorMatrix in="SourceAlpha" result="hardAlpha" values="0 0 0 0 0 0 0 0 0 0 0 0 0 0 0 0 0 0 127 0"/><feOffset dx="40" dy="40"/><feGaussianBlur stdDeviation="65"/><feComposite in2="hardAlpha" operator="out"/><feColorMatrix values="0 0 0 0 0 0 0 0 0 0 0 0 0 0 0 0 0 0 0.07 0"/><feBlend in2="BackgroundImageFix" result="effect1_dropShadow_0_1"/><feBlend in="SourceGraphic" in2="effect1_dropShadow_0_1" result="shape"/></filter></defs></svg>